Coordinates
version=1
nRows=13
nColumns=40
inDegrees=yes

Units are S.I. units (second, meters, Newtons, ...)
Angles are in degrees.

endheader
time	pelvis_tilt	pelvis_list	pelvis_rotation	pelvis_tx	pelvis_ty	pelvis_tz	hip_flexion_r	hip_adduction_r	hip_rotation_r	knee_angle_r	knee_angle_r_beta	ankle_angle_r	subtalar_angle_r	mtp_angle_r	hip_flexion_l	hip_adduction_l	hip_rotation_l	knee_angle_l	knee_angle_l_beta	ankle_angle_l	subtalar_angle_l	mtp_angle_l	lumbar_extension	lumbar_bending	lumbar_rotation	arm_flex_r	arm_add_r	arm_rot_r	elbow_flex_r	pro_sup_r	wrist_flex_r	wrist_dev_r	arm_flex_l	arm_add_l	arm_rot_l	elbow_flex_l	pro_sup_l	wrist_flex_l	wrist_dev_l
      8.76000000	     -7.01420118	     -5.33586047	      2.77710206	      0.98270706	      0.92653921	      0.52274268	     17.39710900	      2.39182983	    -18.21805868	     18.01570397	     18.01570397	      9.43112163	     -0.94352060	     -1.66016357	     36.11017108	    -12.92015759	      5.09117396	     68.32498527	     68.32498527	      7.14562380	    -17.97522832	      9.16616065	    -13.44095727	      3.73355038	      3.09639287	      9.40929075	    -15.54333153	     -0.23542442	     50.87533369	     44.48028233	      0.00000000	      0.00000000	      3.26947956	     -6.82797755	     -9.62593835	     49.82399153	     45.28270512	      0.00000000	      0.00000000
      8.77135714	     -7.13097253	     -5.42261292	      3.09399019	      0.98089700	      0.92704140	      0.52351854	     16.59191748	      2.66305744	    -18.46813798	     17.10532955	     17.10532955	      9.57388199	     -0.64935004	     -1.65542833	     37.90741749	    -13.03988575	      4.91162382	     67.36218700	     67.36218700	      7.21324385	    -18.32923776	      9.58272252	    -13.43485798	      3.67905705	      2.68320706	     12.02743858	    -15.57874473	     -0.39511100	     52.48854708	     44.45587215	      0.00000000	      0.00000000	      1.81806433	     -6.98671635	     -9.50757313	     47.50241660	     45.26344163	      0.00000000	      0.00000000
      8.78271429	     -7.18058210	     -5.49866521	      3.39086778	      0.97916191	      0.92748885	      0.52411572	     15.78402044	      2.89372860	    -18.75829981	     16.31817336	     16.31817336	      9.53078343	     -0.38704877	     -2.27497935	     39.51662124	    -13.09474552	      4.70412885	     66.30806064	     66.30806064	      7.73939011	    -18.49910669	     11.13772001	    -13.47439097	      3.69859531	      2.96623886	     14.08555578	    -16.43348701	      0.50515354	     54.80784906	     44.40818410	      0.00000000	      0.00000000	      2.06841759	     -6.71252981	     -9.69150933	     41.73442132	     45.36177462	      0.00000000	      0.00000000
      8.79407143	     -7.21455087	     -5.63218576	      3.69253154	      0.97752218	      0.92787618	      0.52472680	     14.93109382	      3.22908590	    -18.97196672	     15.45792334	     15.45792334	      9.63064825	     -0.23002728	     -2.29860209	     40.93441061	    -13.19350177	      4.48471826	     64.97393435	     64.97393435	      7.86210933	    -18.67423393	     11.68662289	    -13.59231920	      3.75056089	      2.68215616	     16.60227930	    -16.55689742	      0.27233282	     56.69197475	     44.38086573	      0.00000000	      0.00000000	      0.71342315	     -6.81173869	     -9.67737446	     39.70400835	     45.36409145	      0.00000000	      0.00000000
      8.80542857	     -7.23053289	     -5.75515760	      3.95436913	      0.97586146	      0.92820186	      0.52526824	     14.05674068	      3.55768194	    -19.16441274	     14.56820855	     14.56820855	      9.69276438	      0.06233351	     -2.44863494	     42.19922532	    -13.20175994	      4.34318278	     63.46830028	     63.46830028	      7.98889609	    -18.71827628	     12.44007724	    -13.71385626	      3.79472077	      2.50942272	     19.03752599	    -16.78323750	      0.27725242	     58.64680948	     44.34386327	      0.00000000	      0.00000000	     -0.30718484	     -6.85750708	     -9.66051188	     37.04839367	     45.37215291	      0.00000000	      0.00000000
      8.81678571	     -7.26241971	     -5.87422772	      4.18187786	      0.97423007	      0.92844168	      0.52564093	     13.20841081	      3.87049268	    -19.35948317	     13.68605390	     13.68605390	      9.71991366	      0.41753922	     -2.63056875	     43.29742512	    -13.12896123	      4.25333202	     61.72297794	     61.72297794	      8.07904529	    -18.72560360	     13.10815446	    -13.82475395	      3.84146693	      2.47462213	     21.36195454	    -17.07003094	      0.34355453	     60.57268337	     44.30394695	      0.00000000	      0.00000000	     -1.24363785	     -6.89435121	     -9.64894371	     34.50201417	     45.38051812	      0.00000000	      0.00000000
      8.82814286	     -7.30984495	     -6.00403641	      4.36175666	      0.97270282	      0.92852439	      0.52587353	     12.38576210	      4.17950618	    -19.60615746	     12.82783700	     12.82783700	      9.72275323	      0.86136502	     -2.97562647	     44.24470396	    -13.00364150	      4.24227457	     59.76390799	     59.76390799	      8.16621572	    -18.62355592	     13.62917121	    -13.87427939	      3.92434693	      2.63676999	     23.53689810	    -17.57419176	      0.56695758	     62.66827435	     44.25850470	      0.00000000	      0.00000000	     -1.95867597	     -6.88955667	     -9.66711862	     31.77873505	     45.40539684	      0.00000000	      0.00000000
      8.83950000	     -7.39797553	     -6.08560127	      4.51014164	      0.97114595	      0.92852731	      0.52589385	     11.61946578	      4.42459059	    -19.75942169	     11.99706986	     11.99706986	      9.77082085	      1.30749284	     -3.17254026	     45.02608439	    -12.76497209	      4.26722265	     57.52496506	     57.52496506	      8.11013223	    -18.44709652	     13.86081262	    -13.91612299	      3.94813595	      2.80221696	     25.76424444	    -17.90547803	      0.57190815	     64.56531266	     44.21898599	      0.00000000	      0.00000000	     -2.94834186	     -6.92424067	     -9.67857308	     30.06054109	     45.41353242	      0.00000000	      0.00000000
      8.85085714	     -7.47064658	     -6.23887938	      4.62861393	      0.96974925	      0.92835495	      0.52577970	     10.78023253	      4.74967795	    -20.00832282	     11.07031536	     11.07031536	      9.75732654	      1.99838176	     -3.50972577	     45.62656720	    -12.51121280	      4.51940005	     55.09083639	     55.09083639	      8.08482320	    -18.07699138	     13.67898710	    -13.93583571	      4.06202487	      2.92793637	     27.90520231	    -18.30733176	      0.78590265	     66.91092987	     44.16342781	      0.00000000	      0.00000000	     -3.94325746	     -6.96571400	     -9.68031880	     28.21257919	     45.42842251	      0.00000000	      0.00000000
      8.86221429	     -7.56612905	     -6.38936505	      4.69811507	      0.96842484	      0.92808868	      0.52555103	     10.00530124	      5.05386411	    -20.27143877	     10.23500368	     10.23500368	      9.78430578	      2.65054435	     -3.83997481	     46.04686180	    -12.31642870	      4.69227648	     52.38362613	     52.38362613	      7.95498053	    -17.45819887	     13.32225248	    -13.90924562	      4.18813297	      3.20370264	     29.96894606	    -18.77139197	      0.94906681	     69.15795246	     44.11337861	      0.00000000	      0.00000000	     -5.00197424	     -7.01122078	     -9.67807803	     26.90156510	     45.43821506	      0.00000000	      0.00000000
      8.87357143	     -7.64698590	     -6.53399175	      4.71097455	      0.96730376	      0.92773292	      0.52521655	      9.15814477	      5.36605209	    -20.47569337	      9.32452743	      9.32452743	      9.82072992	      3.41893332	     -4.10726428	     46.22927567	    -12.11070115	      4.95766598	     49.48483331	     49.48483331	      7.95286143	    -16.58866732	     12.85686158	    -13.89058117	      4.29813843	      3.40704721	     32.06242371	    -19.05239850	      1.10176364	     71.48147640	     44.06076718	      0.00000000	      0.00000000	     -6.19815977	     -7.06974083	     -9.64193383	     25.95014340	     45.43471247	      0.00000000	      0.00000000
      8.88492857	     -7.72405338	     -6.70219579	      4.68544621	      0.96638867	      0.92721346	      0.52479704	      8.32282896	      5.69312799	    -20.66502127	      8.47656851	      8.47656851	      9.90916638	      4.19572172	     -4.34947210	     46.22743124	    -12.00798299	      5.14425205	     46.43471625	     46.43471625	      8.02785153	    -15.42120359	     12.47454753	    -13.81962957	      4.44376834	      3.66267816	     34.12330806	    -19.29341202	      1.23989650	     73.70398686	     44.00975461	      0.00000000	      0.00000000	     -7.46212819	     -7.13419250	     -9.58832413	     25.28890592	     45.42101984	      0.00000000	      0.00000000
      8.89628571	     -7.80438063	     -6.95887904	      4.66119494	      0.96568996	      0.92644240	      0.52419440	      7.44586364	      6.09353597	    -21.08719727	      7.56728584	      7.56728584	      9.90321384	      5.36918570	     -4.94854401	     46.05201924	    -11.98620446	      5.39618532	     43.22713456	     43.22713456	      7.76667637	    -14.24122391	     11.13134716	    -13.75961137	      4.70564132	      4.20957007	     35.70716769	    -20.22018214	      1.90860596	     77.04918554	     43.95044882	      0.00000000	      0.00000000	     -8.71092201	     -7.19278600	     -9.23689371	     25.12421037	     45.38316640	      0.00000000	      0.00000000
